<svg xmlns="http://www.w3.org/2000/svg" xmlns:xlink="http://www.w3.org/1999/xlink" version="1.1" x="0px" y="0px" viewBox="0 0 91 113.75" style="enable-background:new 0 0 91 91;" xml:space="preserve"><g><path d="M14.1,71.9l6.2-1.2c3-0.3,5.3,2.1,5.6,2.4c2.7,2.9,8,1.7,8,1.7l48.8-10.7c1-0.2,1.9-0.8,2.5-1.8c0.6-0.9,0.8-2,0.5-3   c-0.2-1-0.8-1.9-1.8-2.5c-0.9-0.6-2-0.8-3-0.5l-20.2,4.5c0,0,0,0,0,0l-1.8,0.4c0,0,0,0,0,0l-1.3,0.3c-0.7,0.1-1.3-0.3-1.5-1   c-0.1-0.7,0.3-1.3,1-1.5l3-0.7c1-0.2,1.9-0.8,2.5-1.8c0.6-0.9,0.8-2,0.5-3c-0.5-2.1-2.6-3.5-4.8-3L58,50.6l0,0l-1.3,0.3   c-0.7,0.1-1.3-0.3-1.5-1c-0.1-0.7,0.3-1.3,1-1.5l1.3-0.3l1.7-0.4c1-0.2,1.9-0.8,2.5-1.8c0.6-0.9,0.8-2,0.5-3   c-0.2-1-0.8-1.9-1.8-2.5c-0.9-0.6-2-0.8-3-0.5l-1.8,0.4c-0.7,0.1-1.3-0.3-1.5-1c0-0.1,0-0.2,0-0.3c0,0,0,0,0,0c0-0.1,0-0.3,0.1-0.4   c0,0,0-0.1,0-0.1c0-0.1,0.1-0.2,0.2-0.2c0-0.1,0.1-0.1,0.1-0.2c0.1-0.1,0.1-0.1,0.2-0.1c0,0,0.1-0.1,0.1-0.1l0,0   c0.1,0,0.1,0,0.2-0.1c2.1-0.5,3.5-2.6,3-4.8c-0.5-2.1-2.6-3.5-4.8-3l-11.2,2.6c0,0,0,0,0,0c0,0,0,0,0,0L35.7,34   c-0.4,0.1-0.7,0.1-1,0.1c-1.9,0-3.3-1.3-3.9-2.2c-0.4-0.6-0.2-1.4,0.4-1.7c0.6-0.4,1.4-0.2,1.7,0.4c0.1,0.1,1,1.3,2.3,1l1.3-0.3   c-1-1.1-1.3-2.3-1.4-2.5L32,15.5c-0.1-0.5-1.1-4.3-6.4-3.6c-3.1,0.4-3.7,1.2-3.8,1.3c-0.1,0.1-0.1,0.1-0.1,0.2c0,0.1,0,0.1,0.1,0.2   c0.1,0.3,1.8,7.4,2.3,10.7c0.7,4.1-0.9,5.8-1.1,6c0,0-0.1,0.1-0.1,0.1c-0.1,0-5.3,4.5-5.9,11.5c-0.4,4.8-2.8,6.4-3.1,6.5   c-0.1,0.1-0.2,0.1-0.4,0.1L10,49.3C8.6,51.4,2.6,62.1,14.1,71.9z"/></g>></svg>